#define arrow_big_01_width 21
#define arrow_big_01_height 21
static unsigned char arrow_big_01_bits[] = {
   0xf1, 0x00, 0x00, 0xe3, 0x01, 0x00, 0xc7, 0x03, 0x00, 0x8f, 0x07, 0x00,
   0x1f, 0x0f, 0x00, 0x3f, 0x1e, 0x00, 0x7f, 0x3c, 0x00, 0xff, 0x78, 0x00,
   0xff, 0xf1, 0x00, 0xff, 0xe3, 0x01, 0xff, 0xc7, 0x03, 0xff, 0xe3, 0x01,
   0xff, 0xf1, 0x00, 0xff, 0x78, 0x00, 0x7f, 0x3c, 0x00, 0x3f, 0x1e, 0x00,
   0x1f, 0x0f, 0x00, 0x8f, 0x07, 0x00, 0xc7, 0x03, 0x00, 0xe3, 0x01, 0x00,
   0xf1, 0x00, 0x00 };
