#define spiral_width 10
#define spiral_height 10
static unsigned char spiral_bits[] = {
   0xf7, 0x03, 0xf7, 0x03, 0xf7, 0x03, 0xf7, 0x03, 0x07, 0x00, 0xb7, 0x03,
   0x87, 0x03, 0xb7, 0x03, 0xb7, 0x03, 0xb7, 0x03 };
